# xmcd
#
# Track frame offsets: 
#        150
#        6412
#        30607
#        49892
#        63440
#        78517
#        89245
#        102307
#        122567
#        133565
#        163652
#        176132
#        194077
#        212732
#        232087
#        249092
#
# Disc length: 3536 seconds
#
# Revision: 4
# Processed by: cddbd v1.5.2PL0 Copyright (c) Steve Scherf et al.
# Submitted via: ExactAudioCopy v0.95b4
#
DISCID=e70dce10
DTITLE=Various Artist - Total Lee! - The Songs Of Lee Hazlewood
DYEAR=2002
DGENRE=Rock
TTITLE0=Lambchop - I'm Glad I Never
TTITLE1=Madrugada Feat. McNasty, Neil - Come On Home To Me
TTITLE2=Webb Brothers, The - Some Velvet Morning
TTITLE3=Calexico Feat. Leulliot, Valerie - Sundown, Sundown
TTITLE4=Dowd, Johnny - Sleep In The Grass
TTITLE5=St Etienne Feat. Bennet, Nathan - Got It Together Again
TTITLE6=St. Thomas - The Railroad
TTITLE7=Cocker, Jarvis and Hawley, Richard - A Cheat
TTITLE8=Øye, Erlend - No Train To Stockholm
TTITLE9=Amazing Pilots, The - Soul's Island
TTITLE10=Williams, Kathryn - Easy and Me
TTITLE11=Tindersticks, The - My Autumn's Done Come
TTITLE12=Jones, Stephen and Scott, Luke - We All Make The Flowers Grow
TTITLE13=Johnson, Calvin and Pickerel, Mark - Sand
TTITLE14=Dando, Evan and Brooke, Sabrina - Summer Wine
TTITLE15=Loco, Kid Feat. Keegan, Tim - If It's Monday Morning
EXTD=
EXTT0=
EXTT1=
EXTT2=
EXTT3=
EXTT4=
EXTT5=
EXTT6=
EXTT7=
EXTT8=
EXTT9=
EXTT10=
EXTT11=
EXTT12=
EXTT13=
EXTT14=
EXTT15=
PLAYORDER=
